<?xml version="1.0" encoding="utf-8"?><svg xmlns="http://www.w3.org/2000/svg" xmlns:xlink="http://www.w3.org/1999/xlink" width="900" height="450" preserveAspectRatio="xMidYMid" viewBox="0 0 350 350" style="z-index:1;margin-right:-2px;display:block;background-repeat-y:initial;background-repeat-x:initial;background-color:rgba(255, 255, 255, 0);animation-play-state:paused" ><g transform="translate(175,175) scale(1,1) translate(-175,-175)" style="transform:matrix(1, 0, 0, 1, 0, 0);animation-play-state:paused" >
<g transform="matrix(1,0,0,1,136.06724548339844,38.48199462890625)" style="transform:matrix(1, 0, 0, 1, 136.067, 38.482);animation-play-state:paused" ><path d="M84.717,33.597c0.791-2.503,1.186-5.138,1.186-7.773C85.903,11.594,74.308,0,60.079,0 c-9.881,0-18.445,5.534-22.793,13.702c-1.581-0.527-3.426-0.791-5.138-0.791c-9.486,0-17.128,7.642-17.128,17.128 c0,1.186,0.132,2.372,0.395,3.426C6.719,34.783,0,42.424,0,51.515C0,61.66,8.169,69.829,18.314,69.829h63.373 C91.831,69.829,100,61.66,100,51.515C99.868,42.556,93.281,35.046,84.717,33.597z" fill="#f5f7de" transform="scale(0.51)" style="transform:matrix(0.51, 0, 0, 0.51, 0, 0);animation-play-state:paused" ></path></g>
<g transform="matrix(1,0,0,1,184.49517822265625,288.6927795410156)" style="transform:matrix(1, 0, 0, 1, 184.495, 288.693);animation-play-state:paused" ><path d="M84.717,33.597c0.791-2.503,1.186-5.138,1.186-7.773C85.903,11.594,74.308,0,60.079,0 c-9.881,0-18.445,5.534-22.793,13.702c-1.581-0.527-3.426-0.791-5.138-0.791c-9.486,0-17.128,7.642-17.128,17.128 c0,1.186,0.132,2.372,0.395,3.426C6.719,34.783,0,42.424,0,51.515C0,61.66,8.169,69.829,18.314,69.829h63.373 C91.831,69.829,100,61.66,100,51.515C99.868,42.556,93.281,35.046,84.717,33.597z" fill="#ffe8f0" transform="scale(0.6)" style="transform:matrix(0.6, 0, 0, 0.6, 0, 0);animation-play-state:paused" ></path></g></g></svg>
